<?xml version="1.0" encoding="UTF-8" standalone="no"?>
<!DOCTYPE svg PUBLIC "-//W3C//DTD SVG 1.1//EN"
 "http://www.w3.org/Graphics/SVG/1.1/DTD/svg11.dtd">
<!-- Generated by graphviz version 9.0.0 (20230911.1827)
 -->
<!-- Pages: 1 -->
<svg width="1664pt" height="476pt"
 viewBox="0.00 0.00 1664.09 476.00" xmlns="http://www.w3.org/2000/svg" xmlns:xlink="http://www.w3.org/1999/xlink">
<g id="graph0" class="graph" transform="scale(1 1) rotate(0) translate(4 472)">
<polygon fill="white" stroke="none" points="-4,4 -4,-472 1660.09,-472 1660.09,4 -4,4"/>
<!-- [root] @diageo/buildsystem#barrels:generate -->
<g id="node1" class="node">
<title>[root] @diageo/buildsystem#barrels:generate</title>
<ellipse fill="none" stroke="black" cx="593.15" cy="-162" rx="178.79" ry="18"/>
<text text-anchor="middle" x="593.15" y="-156.95" font-family="Times,serif" font-size="14.00">[root] @diageo/buildsystem#barrels:generate</text>
</g>
<!-- [root] @diageo/buildsystem#build -->
<g id="node2" class="node">
<title>[root] @diageo/buildsystem#build</title>
<ellipse fill="none" stroke="black" cx="956.15" cy="-90" rx="138.87" ry="18"/>
<text text-anchor="middle" x="956.15" y="-84.95" font-family="Times,serif" font-size="14.00">[root] @diageo/buildsystem#build</text>
</g>
<!-- [root] @diageo/buildsystem#barrels:generate&#45;&gt;[root] @diageo/buildsystem#build -->
<g id="edge1" class="edge">
<title>[root] @diageo/buildsystem#barrels:generate&#45;&gt;[root] @diageo/buildsystem#build</title>
<path fill="none" stroke="black" d="M673.26,-145.55C731.42,-134.34 810.03,-119.18 869.62,-107.69"/>
<polygon fill="black" stroke="black" points="870.25,-111.13 879.41,-105.8 868.93,-104.26 870.25,-111.13"/>
</g>
<!-- [root] ___ROOT___ -->
<g id="node3" class="node">
<title>[root] ___ROOT___</title>
<ellipse fill="none" stroke="black" cx="956.15" cy="-18" rx="87.18" ry="18"/>
<text text-anchor="middle" x="956.15" y="-12.95" font-family="Times,serif" font-size="14.00">[root] ___ROOT___</text>
</g>
<!-- [root] @diageo/buildsystem#build&#45;&gt;[root] ___ROOT___ -->
<g id="edge2" class="edge">
<title>[root] @diageo/buildsystem#build&#45;&gt;[root] ___ROOT___</title>
<path fill="none" stroke="black" d="M956.15,-71.7C956.15,-64.41 956.15,-55.73 956.15,-47.54"/>
<polygon fill="black" stroke="black" points="959.65,-47.62 956.15,-37.62 952.65,-47.62 959.65,-47.62"/>
</g>
<!-- [root] @diageo/designsystem#barrels:generate -->
<g id="node4" class="node">
<title>[root] @diageo/designsystem#barrels:generate</title>
<ellipse fill="none" stroke="black" cx="469.15" cy="-306" rx="183.91" ry="18"/>
<text text-anchor="middle" x="469.15" y="-300.95" font-family="Times,serif" font-size="14.00">[root] @diageo/designsystem#barrels:generate</text>
</g>
<!-- [root] @diageo/designsystem#barrels:generate&#45;&gt;[root] @diageo/buildsystem#barrels:generate -->
<g id="edge3" class="edge">
<title>[root] @diageo/designsystem#barrels:generate&#45;&gt;[root] @diageo/buildsystem#barrels:generate</title>
<path fill="none" stroke="black" d="M484.36,-287.59C505.95,-262.86 545.64,-217.41 570.65,-188.77"/>
<polygon fill="black" stroke="black" points="573.27,-191.09 577.21,-181.25 568,-186.48 573.27,-191.09"/>
</g>
<!-- [root] @diageo/designsystem#barrels:generate&#45;&gt;[root] @diageo/buildsystem#build -->
<g id="edge4" class="edge">
<title>[root] @diageo/designsystem#barrels:generate&#45;&gt;[root] @diageo/buildsystem#build</title>
<path fill="none" stroke="black" d="M311.42,-296.45C147.96,-282.11 -71.4,-244.08 23.15,-144 49.67,-115.93 552.95,-100.29 809.06,-94.13"/>
<polygon fill="black" stroke="black" points="808.89,-97.63 818.8,-93.89 808.72,-90.63 808.89,-97.63"/>
</g>
<!-- [root] @diageo/utils#barrels:generate -->
<g id="node5" class="node">
<title>[root] @diageo/utils#barrels:generate</title>
<ellipse fill="none" stroke="black" cx="741.15" cy="-234" rx="149.62" ry="18"/>
<text text-anchor="middle" x="741.15" y="-228.95" font-family="Times,serif" font-size="14.00">[root] @diageo/utils#barrels:generate</text>
</g>
<!-- [root] @diageo/designsystem#barrels:generate&#45;&gt;[root] @diageo/utils#barrels:generate -->
<g id="edge5" class="edge">
<title>[root] @diageo/designsystem#barrels:generate&#45;&gt;[root] @diageo/utils#barrels:generate</title>
<path fill="none" stroke="black" d="M532.58,-288.68C573.22,-278.22 626.08,-264.61 668.42,-253.72"/>
<polygon fill="black" stroke="black" points="669.22,-257.13 678.03,-251.24 667.48,-250.35 669.22,-257.13"/>
</g>
<!-- [root] stylelint&#45;config&#45;diageo#barrels:generate -->
<g id="node6" class="node">
<title>[root] stylelint&#45;config&#45;diageo#barrels:generate</title>
<ellipse fill="none" stroke="black" cx="214.15" cy="-162" rx="181.86" ry="18"/>
<text text-anchor="middle" x="214.15" y="-156.95" font-family="Times,serif" font-size="14.00">[root] stylelint&#45;config&#45;diageo#barrels:generate</text>
</g>
<!-- [root] @diageo/designsystem#barrels:generate&#45;&gt;[root] stylelint&#45;config&#45;diageo#barrels:generate -->
<g id="edge6" class="edge">
<title>[root] @diageo/designsystem#barrels:generate&#45;&gt;[root] stylelint&#45;config&#45;diageo#barrels:generate</title>
<path fill="none" stroke="black" d="M438.39,-287.87C392.54,-262.34 306.19,-214.25 255.06,-185.78"/>
<polygon fill="black" stroke="black" points="256.78,-182.73 246.34,-180.93 253.38,-188.85 256.78,-182.73"/>
</g>
<!-- [root] tsconfig#barrels:generate -->
<g id="node7" class="node">
<title>[root] tsconfig#barrels:generate</title>
<ellipse fill="none" stroke="black" cx="956.15" cy="-162" rx="127.61" ry="18"/>
<text text-anchor="middle" x="956.15" y="-156.95" font-family="Times,serif" font-size="14.00">[root] tsconfig#barrels:generate</text>
</g>
<!-- [root] @diageo/designsystem#barrels:generate&#45;&gt;[root] tsconfig#barrels:generate -->
<g id="edge7" class="edge">
<title>[root] @diageo/designsystem#barrels:generate&#45;&gt;[root] tsconfig#barrels:generate</title>
<path fill="none" stroke="black" d="M593.33,-292.36C716,-279.47 887.18,-260.23 900.15,-252 922.39,-237.88 937.35,-211.41 946.17,-190.99"/>
<polygon fill="black" stroke="black" points="949.38,-192.37 949.88,-181.79 942.89,-189.75 949.38,-192.37"/>
</g>
<!-- [root] @diageo/utils#barrels:generate&#45;&gt;[root] @diageo/buildsystem#barrels:generate -->
<g id="edge22" class="edge">
<title>[root] @diageo/utils#barrels:generate&#45;&gt;[root] @diageo/buildsystem#barrels:generate</title>
<path fill="none" stroke="black" d="M705.33,-216.05C685.48,-206.67 660.58,-194.89 639.29,-184.82"/>
<polygon fill="black" stroke="black" points="641.07,-181.79 630.53,-180.68 638.07,-188.12 641.07,-181.79"/>
</g>
<!-- [root] @diageo/utils#barrels:generate&#45;&gt;[root] @diageo/buildsystem#build -->
<g id="edge23" class="edge">
<title>[root] @diageo/utils#barrels:generate&#45;&gt;[root] @diageo/buildsystem#build</title>
<path fill="none" stroke="black" d="M754.59,-215.78C772.67,-192.98 804.25,-154.42 819.15,-144 839.54,-129.75 864.28,-118.66 887.1,-110.39"/>
<polygon fill="black" stroke="black" points="888.05,-113.77 896.34,-107.18 885.75,-107.16 888.05,-113.77"/>
</g>
<!-- [root] @diageo/utils#barrels:generate&#45;&gt;[root] stylelint&#45;config&#45;diageo#barrels:generate -->
<g id="edge24" class="edge">
<title>[root] @diageo/utils#barrels:generate&#45;&gt;[root] stylelint&#45;config&#45;diageo#barrels:generate</title>
<path fill="none" stroke="black" d="M643.26,-220C554.88,-208.26 424.68,-190.96 330.9,-178.51"/>
<polygon fill="black" stroke="black" points="331.53,-175.06 321.15,-177.21 330.6,-182 331.53,-175.06"/>
</g>
<!-- [root] @diageo/utils#barrels:generate&#45;&gt;[root] tsconfig#barrels:generate -->
<g id="edge25" class="edge">
<title>[root] @diageo/utils#barrels:generate&#45;&gt;[root] tsconfig#barrels:generate</title>
<path fill="none" stroke="black" d="M791.56,-216.59C822.78,-206.42 863.06,-193.31 895.95,-182.6"/>
<polygon fill="black" stroke="black" points="896.94,-185.96 905.36,-179.54 894.77,-179.3 896.94,-185.96"/>
</g>
<!-- [root] stylelint&#45;config&#45;diageo#barrels:generate&#45;&gt;[root] @diageo/buildsystem#build -->
<g id="edge27" class="edge">
<title>[root] stylelint&#45;config&#45;diageo#barrels:generate&#45;&gt;[root] @diageo/buildsystem#build</title>
<path fill="none" stroke="black" d="M342.55,-148.89C480.93,-135.83 699.5,-115.21 835,-102.43"/>
<polygon fill="black" stroke="black" points="835.1,-105.94 844.72,-101.51 834.44,-98.97 835.1,-105.94"/>
</g>
<!-- [root] tsconfig#barrels:generate&#45;&gt;[root] @diageo/buildsystem#build -->
<g id="edge29" class="edge">
<title>[root] tsconfig#barrels:generate&#45;&gt;[root] @diageo/buildsystem#build</title>
<path fill="none" stroke="black" d="M956.15,-143.7C956.15,-136.41 956.15,-127.73 956.15,-119.54"/>
<polygon fill="black" stroke="black" points="959.65,-119.62 956.15,-109.62 952.65,-119.62 959.65,-119.62"/>
</g>
<!-- [root] @diageo/designsystem#build -->
<g id="node8" class="node">
<title>[root] @diageo/designsystem#build</title>
<ellipse fill="none" stroke="black" cx="709.15" cy="-378" rx="143.99" ry="18"/>
<text text-anchor="middle" x="709.15" y="-372.95" font-family="Times,serif" font-size="14.00">[root] @diageo/designsystem#build</text>
</g>
<!-- [root] @diageo/designsystem#build&#45;&gt;[root] @diageo/designsystem#barrels:generate -->
<g id="edge8" class="edge">
<title>[root] @diageo/designsystem#build&#45;&gt;[root] @diageo/designsystem#barrels:generate</title>
<path fill="none" stroke="black" d="M654.09,-360.94C619.2,-350.76 573.83,-337.53 536.76,-326.72"/>
<polygon fill="black" stroke="black" points="538.07,-323.46 527.49,-324.02 536.11,-330.18 538.07,-323.46"/>
</g>
<!-- [root] @diageo/utils#build -->
<g id="node9" class="node">
<title>[root] @diageo/utils#build</title>
<ellipse fill="none" stroke="black" cx="781.15" cy="-306" rx="109.7" ry="18"/>
<text text-anchor="middle" x="781.15" y="-300.95" font-family="Times,serif" font-size="14.00">[root] @diageo/utils#build</text>
</g>
<!-- [root] @diageo/designsystem#build&#45;&gt;[root] @diageo/utils#build -->
<g id="edge9" class="edge">
<title>[root] @diageo/designsystem#build&#45;&gt;[root] @diageo/utils#build</title>
<path fill="none" stroke="black" d="M726.95,-359.7C735.58,-351.3 746.11,-341.07 755.58,-331.86"/>
<polygon fill="black" stroke="black" points="757.74,-334.64 762.47,-325.16 752.86,-329.62 757.74,-334.64"/>
</g>
<!-- [root] @diageo/utils#build&#45;&gt;[root] @diageo/utils#barrels:generate -->
<g id="edge26" class="edge">
<title>[root] @diageo/utils#build&#45;&gt;[root] @diageo/utils#barrels:generate</title>
<path fill="none" stroke="black" d="M771.26,-287.7C766.81,-279.9 761.44,-270.51 756.48,-261.83"/>
<polygon fill="black" stroke="black" points="759.68,-260.36 751.68,-253.42 753.6,-263.84 759.68,-260.36"/>
</g>
<!-- [root] @diageo/graphiql#build -->
<g id="node10" class="node">
<title>[root] @diageo/graphiql#build</title>
<ellipse fill="none" stroke="black" cx="1110.15" cy="-234" rx="124.54" ry="18"/>
<text text-anchor="middle" x="1110.15" y="-228.95" font-family="Times,serif" font-size="14.00">[root] @diageo/graphiql#build</text>
</g>
<!-- [root] @diageo/graphiql#build&#45;&gt;[root] @diageo/buildsystem#build -->
<g id="edge10" class="edge">
<title>[root] @diageo/graphiql#build&#45;&gt;[root] @diageo/buildsystem#build</title>
<path fill="none" stroke="black" d="M1111.52,-215.52C1112.09,-195.9 1109.98,-164.17 1093.15,-144 1080.06,-128.3 1061.73,-117.24 1042.74,-109.45"/>
<polygon fill="black" stroke="black" points="1044.15,-106.24 1033.56,-105.98 1041.68,-112.79 1044.15,-106.24"/>
</g>
<!-- [root] @diageo/graphiql#build&#45;&gt;[root] tsconfig#barrels:generate -->
<g id="edge11" class="edge">
<title>[root] @diageo/graphiql#build&#45;&gt;[root] tsconfig#barrels:generate</title>
<path fill="none" stroke="black" d="M1073.66,-216.41C1052.62,-206.85 1025.94,-194.72 1003.32,-184.44"/>
<polygon fill="black" stroke="black" points="1004.85,-181.29 994.3,-180.34 1001.95,-187.66 1004.85,-181.29"/>
</g>
<!-- [root] tsconfig#build -->
<g id="node11" class="node">
<title>[root] tsconfig#build</title>
<ellipse fill="none" stroke="black" cx="1228.15" cy="-162" rx="87.69" ry="18"/>
<text text-anchor="middle" x="1228.15" y="-156.95" font-family="Times,serif" font-size="14.00">[root] tsconfig#build</text>
</g>
<!-- [root] @diageo/graphiql#build&#45;&gt;[root] tsconfig#build -->
<g id="edge12" class="edge">
<title>[root] @diageo/graphiql#build&#45;&gt;[root] tsconfig#build</title>
<path fill="none" stroke="black" d="M1138.72,-216.05C1154.34,-206.79 1173.88,-195.19 1190.71,-185.21"/>
<polygon fill="black" stroke="black" points="1192.14,-188.43 1198.96,-180.32 1188.57,-182.41 1192.14,-188.43"/>
</g>
<!-- [root] tsconfig#build&#45;&gt;[root] @diageo/buildsystem#build -->
<g id="edge30" class="edge">
<title>[root] tsconfig#build&#45;&gt;[root] @diageo/buildsystem#build</title>
<path fill="none" stroke="black" d="M1175.06,-147.34C1133.07,-136.53 1074.03,-121.34 1027.84,-109.45"/>
<polygon fill="black" stroke="black" points="1028.72,-106.06 1018.16,-106.96 1026.97,-112.84 1028.72,-106.06"/>
</g>
<!-- [root] @diageo/northamerica_com#build -->
<g id="node12" class="node">
<title>[root] @diageo/northamerica_com#build</title>
<ellipse fill="none" stroke="black" cx="919.15" cy="-450" rx="163.95" ry="18"/>
<text text-anchor="middle" x="919.15" y="-444.95" font-family="Times,serif" font-size="14.00">[root] @diageo/northamerica_com#build</text>
</g>
<!-- [root] @diageo/northamerica_com#build&#45;&gt;[root] @diageo/buildsystem#build -->
<g id="edge13" class="edge">
<title>[root] @diageo/northamerica_com#build&#45;&gt;[root] @diageo/buildsystem#build</title>
<path fill="none" stroke="black" d="M1021.49,-435.54C1147.25,-416.08 1344.15,-374.78 1344.15,-307 1344.15,-307 1344.15,-307 1344.15,-233 1344.15,-192.55 1354.7,-171.62 1325.15,-144 1293.01,-113.97 1190.96,-100.88 1102.31,-95.22"/>
<polygon fill="black" stroke="black" points="1102.72,-91.74 1092.52,-94.62 1102.29,-98.72 1102.72,-91.74"/>
</g>
<!-- [root] @diageo/northamerica_com#build&#45;&gt;[root] @diageo/designsystem#barrels:generate -->
<g id="edge14" class="edge">
<title>[root] @diageo/northamerica_com#build&#45;&gt;[root] @diageo/designsystem#barrels:generate</title>
<path fill="none" stroke="black" d="M788.97,-438.81C701.85,-430.33 596.1,-416.33 556.15,-396 527.73,-381.53 503.15,-354.15 487.44,-333.57"/>
<polygon fill="black" stroke="black" points="490.32,-331.57 481.56,-325.59 484.68,-335.72 490.32,-331.57"/>
</g>
<!-- [root] @diageo/northamerica_com#build&#45;&gt;[root] @diageo/utils#barrels:generate -->
<g id="edge16" class="edge">
<title>[root] @diageo/northamerica_com#build&#45;&gt;[root] @diageo/utils#barrels:generate</title>
<path fill="none" stroke="black" d="M922.58,-431.7C927.9,-399.52 934.27,-329.91 900.15,-288 886.54,-271.28 867.49,-259.8 847.29,-251.93"/>
<polygon fill="black" stroke="black" points="848.67,-248.7 838.07,-248.64 846.32,-255.29 848.67,-248.7"/>
</g>
<!-- [root] @diageo/northamerica_com#build&#45;&gt;[root] stylelint&#45;config&#45;diageo#barrels:generate -->
<g id="edge18" class="edge">
<title>[root] @diageo/northamerica_com#build&#45;&gt;[root] stylelint&#45;config&#45;diageo#barrels:generate</title>
<path fill="none" stroke="black" d="M784.29,-439.43C617.91,-424.88 348.16,-391.44 276.15,-324 238.25,-288.5 223.24,-227.22 217.51,-191.38"/>
<polygon fill="black" stroke="black" points="221.02,-191.17 216.12,-181.77 214.09,-192.17 221.02,-191.17"/>
</g>
<!-- [root] @diageo/northamerica_com#build&#45;&gt;[root] tsconfig#barrels:generate -->
<g id="edge20" class="edge">
<title>[root] @diageo/northamerica_com#build&#45;&gt;[root] tsconfig#barrels:generate</title>
<path fill="none" stroke="black" d="M927.98,-431.81C932.76,-421.67 938.26,-408.42 941.15,-396 957.96,-323.83 958.41,-235.91 957.3,-191.55"/>
<polygon fill="black" stroke="black" points="960.8,-191.64 957,-181.75 953.8,-191.85 960.8,-191.64"/>
</g>
<!-- [root] @diageo/northamerica_com#build&#45;&gt;[root] @diageo/designsystem#build -->
<g id="edge15" class="edge">
<title>[root] @diageo/northamerica_com#build&#45;&gt;[root] @diageo/designsystem#build</title>
<path fill="none" stroke="black" d="M869.38,-432.41C839.33,-422.39 800.84,-409.56 769.11,-398.99"/>
<polygon fill="black" stroke="black" points="770.23,-395.67 759.63,-395.83 768.01,-402.31 770.23,-395.67"/>
</g>
<!-- [root] @diageo/northamerica_com#build&#45;&gt;[root] @diageo/utils#build -->
<g id="edge17" class="edge">
<title>[root] @diageo/northamerica_com#build&#45;&gt;[root] @diageo/utils#build</title>
<path fill="none" stroke="black" d="M910.92,-431.76C901.19,-412.64 883.58,-381.64 862.15,-360 850.64,-348.37 836.17,-337.92 822.65,-329.44"/>
<polygon fill="black" stroke="black" points="824.7,-326.59 814.33,-324.4 821.07,-332.57 824.7,-326.59"/>
</g>
<!-- [root] @diageo/northamerica_com#build&#45;&gt;[root] tsconfig#build -->
<g id="edge21" class="edge">
<title>[root] @diageo/northamerica_com#build&#45;&gt;[root] tsconfig#build</title>
<path fill="none" stroke="black" d="M978.16,-432.85C1055.3,-408.19 1187.25,-353.04 1244.15,-252 1254.73,-233.22 1249.36,-208.99 1242.11,-190.55"/>
<polygon fill="black" stroke="black" points="1245.4,-189.35 1238.2,-181.57 1238.98,-192.14 1245.4,-189.35"/>
</g>
<!-- [root] stylelint&#45;config&#45;diageo#build -->
<g id="node13" class="node">
<title>[root] stylelint&#45;config&#45;diageo#build</title>
<ellipse fill="none" stroke="black" cx="1514.15" cy="-378" rx="141.94" ry="18"/>
<text text-anchor="middle" x="1514.15" y="-372.95" font-family="Times,serif" font-size="14.00">[root] stylelint&#45;config&#45;diageo#build</text>
</g>
<!-- [root] @diageo/northamerica_com#build&#45;&gt;[root] stylelint&#45;config&#45;diageo#build -->
<g id="edge19" class="edge">
<title>[root] @diageo/northamerica_com#build&#45;&gt;[root] stylelint&#45;config&#45;diageo#build</title>
<path fill="none" stroke="black" d="M1028.28,-436.16C1134.24,-423.7 1294.35,-404.86 1401.49,-392.25"/>
<polygon fill="black" stroke="black" points="1401.63,-395.76 1411.16,-391.12 1400.82,-388.81 1401.63,-395.76"/>
</g>
<!-- [root] stylelint&#45;config&#45;diageo#build&#45;&gt;[root] @diageo/buildsystem#build -->
<g id="edge28" class="edge">
<title>[root] stylelint&#45;config&#45;diageo#build&#45;&gt;[root] @diageo/buildsystem#build</title>
<path fill="none" stroke="black" d="M1508.26,-359.54C1492.2,-314.97 1443.12,-196.8 1358.15,-144 1315.44,-117.46 1195.2,-104.04 1097.26,-97.35"/>
<polygon fill="black" stroke="black" points="1097.76,-93.88 1087.55,-96.71 1097.3,-100.87 1097.76,-93.88"/>
</g>
</g>
</svg>
