<?xml version="1.0" standalone="no"?>
<!DOCTYPE svg PUBLIC "-//W3C//DTD SVG 20010904//EN"
 "http://www.w3.org/TR/2001/REC-SVG-20010904/DTD/svg10.dtd">
<svg version="1.0" xmlns="http://www.w3.org/2000/svg"
 width="2408.000000pt" height="2408.000000pt" viewBox="0 0 2408.000000 2408.000000"
 preserveAspectRatio="xMidYMid meet">
<metadata>
Created by potrace 1.11, written by Peter Selinger 2001-2013
</metadata>
<g transform="translate(0.000000,2408.000000) scale(0.100000,-0.100000)"
fill="#000000" stroke="none">
<path d="M12837 14724 c-1 -1 -38 -5 -82 -8 -44 -3 -89 -8 -100 -10 -21 -4
-106 -17 -140 -21 -11 -2 -53 -11 -94 -20 -40 -9 -78 -18 -85 -19 -53 -11
-270 -84 -351 -119 -195 -84 -479 -252 -585 -346 -25 -22 -48 -41 -51 -41 -24
-1 -277 -254 -369 -369 -19 -25 -41 -50 -47 -57 -7 -7 -13 -15 -13 -18 0 -5
-51 -75 -84 -116 -7 -9 -16 -22 -20 -30 -8 -18 -26 -47 -48 -80 -36 -55 -119
-216 -173 -335 -48 -107 -100 -261 -140 -415 -8 -32 -36 -167 -41 -199 -3 -18
-8 -43 -10 -55 -3 -11 -7 -37 -8 -56 -2 -19 -7 -71 -12 -115 -16 -149 -9 -526
11 -626 3 -13 10 -55 16 -94 17 -109 82 -364 109 -430 11 -27 22 -58 26 -70
12 -49 123 -286 139 -297 6 -4 6 -8 2 -8 -4 0 9 -26 29 -57 20 -32 37 -60 36
-63 -2 -12 147 -226 218 -314 126 -155 359 -377 490 -466 19 -13 37 -27 40
-30 12 -13 151 -100 160 -100 5 0 10 -3 10 -7 0 -5 10 -13 23 -19 12 -6 63
-32 112 -56 143 -72 196 -96 291 -129 100 -35 206 -68 244 -75 14 -3 39 -9 55
-14 17 -5 46 -11 65 -14 19 -3 46 -7 60 -10 31 -6 104 -16 190 -26 68 -8 433
-5 485 4 17 2 73 11 125 20 100 16 265 56 340 83 103 36 278 108 325 133 27
15 75 41 105 57 143 76 353 224 474 333 181 165 350 369 437 530 13 25 26 47
29 50 6 6 46 88 83 170 46 104 112 316 132 425 46 259 59 400 59 665 0 198 -6
308 -20 353 -5 16 -65 17 -1117 15 l-1112 -3 0 -398 c0 -219 3 -401 7 -403 4
-3 314 -5 689 -5 l682 0 -6 -42 c-3 -23 -8 -53 -12 -67 -3 -14 -8 -36 -11 -50
-10 -53 -48 -149 -96 -242 -193 -379 -628 -701 -1043 -772 -16 -3 -41 -7 -55
-11 -107 -24 -489 -24 -559 1 -8 2 -30 7 -50 10 -20 3 -56 12 -81 21 -25 8
-55 17 -66 19 -20 4 -57 18 -129 49 -16 7 -37 16 -45 19 -33 13 -148 80 -202
117 -32 21 -62 39 -67 39 -6 0 -14 6 -18 13 -4 7 -21 21 -36 30 -16 10 -36 26
-46 35 -9 9 -44 40 -76 67 -75 63 -155 143 -220 221 -27 32 -55 65 -62 72 -7
7 -20 26 -30 42 -9 17 -21 30 -25 30 -4 0 -8 6 -8 13 0 7 -8 22 -17 33 -22 24
-54 78 -96 164 -18 36 -35 66 -39 68 -5 2 -8 11 -8 20 0 10 -7 31 -16 47 -35
66 -94 274 -110 385 -2 19 -7 55 -11 80 -14 100 -5 511 11 539 2 3 7 28 11 56
16 126 97 369 162 494 73 137 98 181 105 181 5 0 8 5 8 11 0 5 25 43 55 84 75
102 104 136 181 217 127 132 253 230 424 328 84 48 250 114 345 136 43 11 50
13 50 14 0 2 35 9 85 16 25 3 54 8 65 11 65 14 334 19 385 8 14 -4 41 -8 60
-10 80 -9 118 -16 180 -31 36 -9 72 -19 80 -22 8 -3 20 -6 26 -7 75 -17 404
-168 404 -187 0 -4 4 -8 10 -8 13 0 143 -93 210 -150 76 -64 186 -174 250
-250 30 -36 57 -67 60 -70 3 -3 26 -33 51 -66 l45 -62 40 37 c22 20 64 56 93
81 29 25 68 59 86 75 30 28 129 115 179 158 12 10 48 42 81 71 33 30 81 71
106 93 l46 39 -39 50 c-21 27 -45 58 -53 69 -79 103 -297 321 -425 425 -30 25
-57 48 -60 51 -15 17 -209 145 -295 194 -122 70 -352 175 -415 190 -8 2 -62
17 -120 33 -184 53 -291 73 -475 88 -62 5 -364 12 -368 8z"/>
<path d="M21268 14705 c-2 -2 -42 -6 -89 -9 -47 -4 -96 -9 -110 -12 -13 -3
-40 -7 -59 -10 -50 -7 -66 -10 -145 -29 -38 -9 -77 -18 -85 -20 -40 -10 -203
-67 -268 -94 -95 -40 -344 -171 -362 -191 -3 -3 -41 -30 -85 -60 -44 -30 -85
-59 -91 -65 -7 -5 -31 -26 -55 -45 -154 -123 -386 -363 -500 -515 -24 -33 -46
-62 -49 -65 -5 -5 -90 -137 -135 -210 -12 -19 -47 -89 -79 -155 -32 -66 -62
-128 -67 -137 -5 -10 -9 -27 -9 -37 0 -11 -4 -22 -9 -25 -5 -3 -23 -52 -40
-108 -18 -57 -36 -114 -41 -128 -30 -90 -74 -346 -86 -505 -8 -100 -12 -425
-6 -438 2 -5 6 -35 8 -67 5 -83 35 -278 54 -350 5 -19 11 -46 14 -60 17 -89
122 -394 158 -458 10 -18 18 -37 18 -43 0 -6 9 -24 21 -40 11 -16 17 -29 14
-29 -3 0 3 -13 14 -29 12 -16 21 -36 21 -45 0 -9 4 -16 8 -16 5 0 16 -17 26
-37 20 -41 152 -243 185 -283 11 -14 24 -30 28 -35 81 -106 280 -312 394 -408
48 -41 181 -137 189 -137 6 0 10 -4 10 -8 0 -5 12 -15 28 -23 15 -8 29 -16 32
-19 24 -26 377 -210 402 -210 3 0 23 -8 44 -17 22 -9 42 -18 47 -19 4 -1 9 -3
12 -4 3 -1 8 -3 13 -5 4 -1 14 -4 22 -8 126 -49 399 -109 570 -125 151 -14
518 -6 614 14 12 2 39 7 61 10 236 31 595 159 846 302 68 38 83 47 93 55 6 4
45 31 86 59 80 55 198 147 241 188 126 119 163 156 224 227 105 120 119 138
208 273 106 160 96 143 171 295 79 158 160 364 181 460 2 11 9 36 15 55 10 35
40 167 45 205 2 11 6 34 10 50 3 17 8 46 10 65 2 19 6 60 10 90 20 176 20 536
-1 643 -2 11 -6 45 -10 76 -3 31 -8 65 -11 76 -2 11 -8 43 -13 70 -12 65 -18
93 -25 115 -3 10 -8 27 -10 38 -7 39 -46 168 -55 184 -6 10 -10 25 -10 33 0 8
-4 23 -10 33 -5 9 -26 58 -46 107 -38 96 -129 276 -163 324 -12 16 -21 32 -21
36 0 4 -32 53 -72 109 -228 320 -465 552 -763 748 -167 110 -458 250 -568 273
-9 2 -20 6 -25 9 -11 6 -193 54 -233 61 -19 3 -45 7 -59 10 -54 10 -138 22
-220 31 -54 6 -457 13 -462 9z m362 -780 c19 -3 58 -8 85 -11 107 -11 314 -68
425 -116 106 -46 254 -128 325 -180 124 -92 308 -261 389 -358 130 -157 201
-276 294 -490 28 -66 77 -237 89 -315 2 -16 6 -41 8 -55 2 -14 7 -41 10 -60
23 -143 22 -402 -1 -565 -4 -22 -8 -53 -9 -70 -2 -16 -5 -31 -6 -32 -2 -3 -2
-3 -14 -58 -4 -22 -9 -44 -10 -50 -2 -5 -11 -37 -21 -70 -10 -33 -19 -62 -19
-65 -1 -3 -5 -14 -9 -25 -4 -11 -13 -33 -19 -50 -6 -16 -24 -59 -40 -95 -15
-36 -28 -67 -27 -69 1 -2 -2 -7 -7 -10 -10 -7 -49 -75 -69 -118 -8 -18 -19
-33 -24 -33 -6 0 -10 -6 -10 -14 0 -8 -6 -21 -13 -28 -7 -7 -30 -37 -51 -66
-58 -80 -73 -97 -176 -201 -128 -128 -298 -253 -440 -324 -25 -12 -47 -24 -50
-27 -3 -3 -9 -6 -15 -7 -5 -1 -50 -19 -99 -39 -76 -30 -193 -65 -271 -80 -11
-2 -31 -6 -45 -8 -104 -20 -363 -27 -491 -13 -320 35 -649 178 -914 397 -67
56 -204 200 -266 280 -68 89 -149 213 -149 229 0 5 -4 11 -8 13 -9 3 -72 134
-72 148 0 6 -4 10 -10 10 -5 0 -10 10 -10 23 0 13 -4 27 -9 33 -19 19 -91 263
-107 364 -2 14 -6 34 -9 45 -18 81 -25 391 -12 515 9 91 22 174 32 215 2 11 9
40 15 65 39 167 125 367 228 535 48 79 96 150 112 165 3 3 17 21 32 40 15 19
37 47 50 62 13 14 30 35 39 45 26 30 120 116 174 158 28 22 52 42 55 45 26 28
234 147 325 186 17 7 46 19 65 27 19 9 76 27 125 41 87 24 116 31 180 42 17 3
41 7 55 10 14 3 66 7 115 11 50 3 91 6 92 7 4 4 148 -4 183 -9z"/>
<path d="M4670 12053 l0 -2593 414 0 414 0 1 75 c1 41 2 82 2 90 1 21 1 782 0
800 0 8 0 44 0 80 0 36 0 72 0 80 0 8 0 188 0 400 0 212 0 392 0 400 0 8 0 44
0 80 0 36 0 72 0 80 0 8 0 188 0 400 0 212 0 392 0 400 0 8 0 44 0 80 0 36 0
72 0 80 0 8 0 188 0 400 0 212 0 392 0 400 0 8 0 44 0 80 0 36 0 72 0 80 0 8
0 188 0 400 0 212 0 392 0 400 0 8 0 45 0 83 0 37 -1 78 -1 92 -1 14 -2 66 -3
115 l-2 90 -412 1 -413 1 0 -2594z"/>
<path d="M7980 14636 c-5 -5 -10 -14 -10 -18 0 -4 -25 -68 -56 -140 -72 -172
-69 -167 -87 -208 -8 -19 -32 -75 -52 -125 -20 -49 -43 -103 -50 -120 -8 -16
-42 -97 -76 -180 -34 -82 -66 -154 -70 -160 -5 -5 -9 -15 -9 -23 0 -7 -12 -39
-26 -70 -14 -31 -30 -68 -35 -81 -5 -13 -89 -213 -185 -445 -187 -447 -187
-448 -227 -541 -14 -33 -55 -132 -92 -220 -36 -88 -72 -173 -80 -190 -7 -16
-37 -86 -65 -155 -28 -69 -57 -136 -63 -150 -5 -14 -11 -27 -12 -30 -2 -7 -8
-21 -103 -245 -46 -110 -85 -206 -86 -213 -1 -7 -8 -18 -14 -24 -7 -7 -12 -18
-12 -26 0 -7 -9 -32 -19 -55 -10 -23 -42 -98 -71 -167 -28 -69 -59 -143 -69
-165 -10 -22 -26 -62 -37 -90 -10 -27 -20 -52 -24 -55 -3 -3 -11 -23 -19 -45
-7 -22 -22 -58 -31 -80 -10 -22 -30 -69 -45 -105 -15 -36 -36 -85 -47 -109
-11 -24 -28 -64 -38 -90 -34 -86 -331 -796 -345 -823 l-13 -28 454 0 454 0 16
38 c9 20 21 45 26 56 5 10 16 35 23 55 7 20 21 54 31 76 10 22 19 49 21 59 2
11 9 26 15 34 7 8 13 19 14 26 1 6 26 67 54 136 29 69 67 161 85 205 18 44 72
175 120 290 47 116 87 218 88 228 1 9 2 17 4 17 1 0 35 -13 75 -29 73 -29 104
-39 208 -67 91 -25 258 -59 340 -69 14 -2 54 -7 90 -12 131 -17 521 -9 655 13
17 3 41 7 55 9 20 2 73 12 110 20 3 1 32 7 65 14 33 7 120 33 193 58 121 41
146 45 148 25 2 -29 280 -735 321 -817 8 -16 16 -38 18 -47 2 -10 10 -32 18
-50 8 -18 36 -85 62 -148 26 -63 48 -116 50 -118 2 -2 96 -3 702 -2 l203 0
-12 28 c-6 15 -17 41 -24 57 -20 48 -37 89 -39 98 -2 4 -4 9 -5 12 -1 3 -3 8
-5 13 -1 4 -9 25 -19 47 -9 22 -26 63 -38 90 -11 28 -29 68 -38 90 -10 22 -24
58 -31 80 -8 22 -16 42 -19 45 -3 3 -11 22 -19 44 -7 21 -22 58 -32 82 -11 24
-19 45 -18 46 1 2 -4 14 -11 28 -8 14 -15 27 -16 30 0 3 -4 14 -9 25 -38 95
-60 147 -77 185 -11 24 -21 49 -22 55 -2 5 -10 28 -20 50 -10 22 -36 85 -58
140 -22 55 -46 114 -53 130 -18 41 -94 227 -100 245 -3 8 -25 61 -39 95 -7 16
-21 50 -31 75 -10 25 -29 70 -43 100 -13 30 -25 60 -26 65 -2 6 -10 27 -19 49
-9 21 -17 40 -17 42 0 2 -11 28 -25 58 -14 30 -25 59 -25 63 0 5 -9 28 -20 51
-11 23 -43 99 -71 169 -28 71 -58 144 -66 163 -9 19 -21 49 -28 65 -7 17 -48
116 -90 220 -43 105 -84 202 -91 217 -8 15 -14 30 -14 33 -1 8 -10 31 -102
253 -48 118 -88 216 -88 218 0 2 -13 33 -30 69 -16 36 -30 71 -30 78 0 6 -7
26 -16 42 -9 17 -27 57 -39 90 -13 33 -40 98 -60 145 -20 47 -38 93 -41 104
-2 10 -7 23 -12 30 -5 6 -19 36 -30 66 -11 30 -46 116 -77 190 -31 74 -63 153
-72 175 -8 22 -21 54 -28 70 -32 72 -45 103 -45 109 0 3 -9 28 -21 54 -32 73
-36 81 -75 177 -20 50 -44 108 -54 130 -9 22 -22 54 -29 71 l-12 30 -204 1
c-127 0 -208 -4 -215 -11z m262 -1621 c17 -44 37 -93 43 -110 7 -16 36 -93 65
-170 29 -77 61 -160 70 -185 26 -67 109 -287 135 -355 13 -33 36 -95 53 -137
17 -43 28 -78 25 -78 -3 0 -1 -6 5 -13 6 -7 20 -39 32 -72 12 -33 25 -69 30
-80 34 -84 53 -131 54 -140 2 -5 10 -27 19 -49 9 -21 17 -44 17 -50 0 -6 11
-30 25 -54 13 -23 27 -57 30 -75 6 -31 5 -32 -52 -55 -32 -12 -69 -24 -83 -26
-14 -3 -25 -5 -25 -6 0 -1 -9 -3 -20 -4 -11 -2 -33 -6 -50 -9 -16 -4 -48 -10
-70 -13 -22 -3 -42 -7 -45 -9 -29 -18 -444 -26 -560 -11 -30 4 -68 9 -85 11
-38 5 -67 10 -130 25 -27 6 -57 13 -65 15 -8 2 -40 14 -70 28 -30 13 -60 26
-66 28 -7 3 7 41 35 99 26 52 48 99 48 103 1 8 54 143 79 202 11 27 315 791
403 1015 21 52 42 104 46 115 5 11 9 22 10 25 1 3 9 22 18 44 9 21 17 40 17
42 0 1 5 15 11 31 8 19 13 23 16 13 2 -8 18 -51 35 -95z"/>
<path d="M15859 14641 c-5 -24 -2 -5174 3 -5177 5 -3 2556 -5 2638 -2 8 0 20
-1 25 -2 6 -1 20 -2 31 -1 l21 1 1 405 0 405 -42 0 c-22 1 -452 1 -953 1 -502
0 -914 4 -914 7 -3 17 -5 1569 -1 1582 3 13 107 15 877 15 l875 0 2 398 c2
257 -1 401 -7 406 -5 5 -395 8 -865 7 -470 -1 -862 0 -870 2 -13 3 -15 72 -14
560 1 306 2 559 3 562 0 3 421 5 934 5 512 -1 937 0 943 2 7 3 10 82 10 256
-1 139 2 260 7 270 4 9 4 17 0 17 -4 0 -7 64 -7 143 l2 143 -1349 0 c-742 0
-1350 -2 -1350 -5z"/>
<path d="M43 14621 c-5 -3 -9 -1170 -8 -2592 0 -2291 2 -2586 15 -2587 8 -1
65 -1 125 -1 61 0 117 0 125 0 60 -2 134 1 141 5 4 2 10 0 13 -5 3 -5 21 -6
40 -1 19 4 37 5 40 3 3 -3 36 -5 73 -3 37 1 75 2 83 1 8 0 65 0 125 0 61 0
117 0 125 0 71 -2 125 1 134 8 6 5 88 12 181 15 177 7 217 9 325 20 87 9 133
15 210 27 36 6 74 12 85 13 11 2 45 8 75 14 30 6 66 14 80 16 14 3 61 15 105
27 44 11 87 22 95 24 33 7 249 84 310 110 96 41 324 158 340 175 3 3 28 20 56
38 28 18 62 41 75 52 13 11 29 23 34 27 138 106 284 255 411 418 106 137 169
236 243 385 76 153 99 205 134 310 38 113 73 245 90 335 30 156 31 162 44 295
10 97 10 504 0 595 -4 39 -10 86 -12 105 -2 19 -6 49 -9 65 -4 17 -9 46 -12
65 -2 19 -7 47 -10 62 -3 15 -6 30 -6 33 0 2 -9 37 -19 77 -11 40 -22 82 -24
94 -8 37 -66 207 -92 269 -89 215 -219 434 -355 599 -47 57 -244 254 -301 301
-74 61 -196 151 -226 166 -14 8 -28 16 -31 19 -20 23 -251 139 -365 184 -38
16 -79 32 -90 37 -98 41 -425 125 -563 144 -12 2 -53 8 -90 14 -37 6 -89 13
-117 16 -27 3 -68 8 -90 10 -22 3 -76 8 -120 11 -107 8 -1381 13 -1392 5z
m1344 -815 c50 -3 102 -7 115 -10 12 -3 52 -8 88 -11 36 -3 83 -10 105 -15 22
-5 41 -9 43 -9 39 -3 104 -16 108 -22 3 -5 9 -7 14 -4 8 5 112 -19 130 -30 5
-3 20 -8 32 -10 13 -3 32 -9 43 -13 11 -5 38 -15 60 -22 22 -7 68 -26 103 -41
34 -16 67 -29 72 -29 6 0 10 -4 10 -10 0 -5 6 -10 12 -10 20 0 126 -68 203
-129 135 -107 264 -248 354 -386 40 -61 119 -212 141 -270 29 -76 41 -112 64
-196 27 -104 34 -139 51 -269 14 -109 20 -369 11 -455 -16 -145 -24 -200 -40
-280 -44 -220 -190 -523 -333 -694 -128 -153 -310 -302 -468 -383 -68 -35
-214 -97 -245 -103 -8 -2 -35 -10 -60 -19 -46 -15 -147 -40 -209 -51 -19 -3
-37 -8 -41 -10 -5 -3 -58 -11 -130 -20 -14 -1 -50 -6 -80 -9 -107 -14 -158
-17 -405 -21 l-251 -5 2 1772 c1 975 2 1773 3 1774 6 2 426 -5 498 -10z"/>
</g>
</svg>
