<svg width="122" height="37" viewBox="0 0 122 37" fill="none" xmlns="http://www.w3.org/2000/svg">
<path d="M63.9392 26.2733L48.0227 8.01489H47.4995V31.8356H49.971V13.8018L65.7586 31.8356H66.298V8.01489H63.9392V26.2733Z" fill="black"/>
<path d="M89.4923 0C88.5343 0 87.7534 0.777461 87.7534 1.73125C87.7534 2.68504 88.5343 3.46251 89.4923 3.46251C90.4585 3.46251 91.2313 2.68504 91.2313 1.73125C91.2313 0.777461 90.4504 0 89.4923 0Z" fill="black"/>
<path d="M117.791 34.9455C116.06 34.9455 114.401 34.4566 111.954 33.2623C110.827 32.7013 109.844 32.4047 109.056 32.2525V32.1803C114.772 31.6193 119.329 26.706 119.329 20.342C119.329 12.9602 113.379 8.01489 106.761 8.01489C100.135 8.01489 94.1938 12.9602 94.1938 20.342C94.1938 27.3072 99.3865 32.1082 105.561 32.6693C106.689 33.1581 108.347 33.9436 110.231 34.9135C112.976 36.3722 114.78 36.9733 117.34 36.9733C118.057 36.9733 118.692 36.821 119.11 36.7089L120.802 34.3524C119.86 34.7532 118.918 34.9455 117.791 34.9455ZM96.754 20.4062C96.754 14.2587 101.496 10.2511 106.761 10.2511C111.994 10.2511 116.768 14.2587 116.768 20.4062C116.768 26.5538 111.986 30.5613 106.761 30.5613C101.496 30.5613 96.754 26.5538 96.754 20.4062Z" fill="black"/>
<path d="M85.2579 8.01489H82.0457L72.4814 16.9517V8.01489H70.042V31.8356H72.4814V20.7428L82.9716 31.8356H86.1517L73.7695 18.699L85.2579 8.01489Z" fill="black"/>
<path d="M43.4502 8.01489H41.0591V31.8277H43.4502V8.01489Z" fill="black"/>
<path d="M12.7525 8.87251C11.1342 8.30343 8.54188 8.01489 4.96733 8.01489H0V31.8277H7.60799C10.5868 31.8277 12.9054 31.3949 14.5639 30.5292C16.2143 29.6636 17.5587 28.325 18.5973 26.5136C19.6358 24.7023 20.1511 22.6023 20.1511 20.2138C20.1511 17.4486 19.499 15.0682 18.1867 13.0724C16.8825 11.0847 15.0711 9.68203 12.7525 8.87251ZM16.1821 25.8244C15.1516 27.3392 13.7346 28.3892 11.9393 28.9743C10.6592 29.3831 8.36476 29.5915 5.06394 29.5915H2.29447V10.3553H3.98514C7.42282 10.3553 9.88636 10.5797 11.3838 11.0366C13.3804 11.6377 14.9342 12.7598 16.0532 14.3869C17.1724 16.014 17.7278 17.9776 17.7278 20.278C17.7278 22.4581 17.2126 24.3095 16.1821 25.8244Z" fill="black"/>
<path d="M91.0789 8.01489H88.5591V31.9159H91.0789V8.01489Z" fill="black"/>
<path d="M34.7631 20.0055C35.8983 19.5005 36.7758 18.7631 37.3876 17.7773C37.9995 16.7914 38.3054 15.6532 38.3054 14.3549C38.3054 12.7999 37.8626 11.4854 36.969 10.4274C36.0834 9.36143 34.9242 8.67213 33.5072 8.34351C32.5653 8.12711 30.7619 8.01489 28.1052 8.01489H23.3472V31.8277H25.7381V20.7668H27.0907L35.6971 31.8277H38.6517L30.0453 20.7668C32.0581 20.7668 33.6279 20.5104 34.7631 20.0055ZM25.7381 18.4426V10.3473H29.9568C31.5991 10.3473 32.7665 10.4916 33.475 10.7641C34.1834 11.0446 34.7551 11.5095 35.1817 12.1667C35.6165 12.824 35.8338 13.5453 35.8338 14.3468C35.8338 15.1644 35.6165 15.9098 35.1898 16.575C34.7631 17.2403 34.1674 17.7212 33.3945 18.0257C32.6296 18.3303 31.4462 18.4826 29.8521 18.4826L25.7381 18.4426Z" fill="black"/>
</svg>
