<svg width="30" height="30" viewBox="0 0 30 30" fill="none" xmlns="http://www.w3.org/2000/svg">
<path fill-rule="evenodd" clip-rule="evenodd" d="M0 14.9617C0 6.69857 6.69857 0 14.9617 0C23.2249 0 29.9235 6.69857 29.9235 14.9617C29.9235 23.2249 23.2249 29.9235 14.9617 29.9235C6.69857 29.9235 0 23.2249 0 14.9617ZM18.6004 7.62091L20.6698 7.61999H20.6701V3.9753L17.6545 3.9707C14.6714 3.9707 12.628 5.79213 12.628 9.13652V12.0184H9.25391V15.926H12.628V25.954H16.6642V15.926H20.5318L20.5336 12.0184H16.6639V9.52346C16.6639 8.39203 16.9777 7.62091 18.6004 7.62091Z" fill="black"/>
</svg>
