<svg width="31" height="30" viewBox="0 0 31 30" fill="none" xmlns="http://www.w3.org/2000/svg">
<path d="M18.7946 15C18.7946 16.5857 17.5092 17.8711 15.9235 17.8711C14.3378 17.8711 13.0524 16.5857 13.0524 15C13.0524 13.4143 14.3378 12.1289 15.9235 12.1289C17.5092 12.1289 18.7946 13.4143 18.7946 15Z" fill="black"/>
<path d="M20.5196 11.4344C19.9488 11.4344 19.486 10.9716 19.486 10.4008C19.486 9.82999 19.9488 9.36719 20.5196 9.36719C21.0904 9.36719 21.5532 9.82999 21.5532 10.4008C21.553 10.9716 21.0904 11.4344 20.5196 11.4344Z" fill="black"/>
<path d="M15.9247 19.424C13.4819 19.424 11.5016 17.4439 11.5016 15.001C11.5016 12.5582 13.4819 10.5781 15.9247 10.5781C18.3674 10.5781 20.3476 12.5582 20.3476 15.001C20.3476 17.4439 18.3674 19.424 15.9247 19.424Z" fill="black"/>
<path fill-rule="evenodd" clip-rule="evenodd" d="M0.923462 15C0.923462 6.717 7.64046 0 15.9235 0C24.2065 0 30.9235 6.717 30.9235 15C30.9235 23.283 24.2065 30 15.9235 30C7.64046 30 0.923462 23.283 0.923462 15ZM24.0845 20.6419C24.2973 20.094 24.4431 19.468 24.4848 18.5511C24.5269 17.6326 24.5367 17.3392 24.5367 15C24.5367 12.6608 24.5269 12.3674 24.485 11.4489C24.4431 10.532 24.2976 9.90601 24.0845 9.35806C23.8684 8.78334 23.5292 8.26286 23.0911 7.83257C22.6608 7.39426 22.1401 7.05505 21.5654 6.83876C21.0175 6.62613 20.3915 6.48056 19.4746 6.4389C18.5561 6.39679 18.2626 6.38672 15.9235 6.38672C13.5843 6.38672 13.2909 6.39679 12.3724 6.43867C11.4555 6.48056 10.8295 6.62613 10.2815 6.83899C9.7068 7.05528 9.1861 7.39426 8.75603 7.83257C8.31772 8.26263 7.97852 8.78334 7.76222 9.35806C7.54936 9.90601 7.40379 10.532 7.36214 11.4489C7.32002 12.3674 7.31018 12.6608 7.31018 15C7.31018 17.3392 7.32002 17.6326 7.36237 18.5513C7.40402 19.468 7.54982 20.0942 7.76268 20.6419C7.97897 21.2167 8.31795 21.7374 8.75603 22.1674C9.18633 22.6057 9.7068 22.9447 10.2818 23.161C10.8295 23.3739 11.4557 23.5194 12.3724 23.5613C13.2911 23.6032 13.5843 23.6133 15.9237 23.6133C18.2629 23.6133 18.5563 23.6032 19.4748 23.5613C20.3915 23.5194 21.0177 23.3739 21.5654 23.161C22.7224 22.7135 23.637 21.7989 24.0845 20.6419Z" fill="black"/>
</svg>
