<svg width="31" height="30" viewBox="0 0 31 30" fill="none" xmlns="http://www.w3.org/2000/svg">
<path fill-rule="evenodd" clip-rule="evenodd" d="M0.923462 15C0.923462 6.717 7.64046 0 15.9235 0C24.2065 0 30.9235 6.717 30.9235 15C30.9235 23.283 24.2065 30 15.9235 30C7.64046 30 0.923462 23.283 0.923462 15ZM7.91174 22.6762H11.5649V11.6855H7.91174V22.6762ZM9.73944 10.1843H9.71564C8.48975 10.1843 7.6969 9.34044 7.6969 8.28575C7.6969 7.20726 8.51401 6.38672 9.7637 6.38672C11.0134 6.38672 11.7824 7.20726 11.8062 8.28575C11.8062 9.34044 11.0134 10.1843 9.73944 10.1843ZM21.0857 22.6744H24.7384V16.3724C24.7384 12.9966 22.9362 11.4258 20.5327 11.4258C18.5945 11.4258 17.7259 12.491 17.2405 13.2399V11.6837H13.5875C13.6354 12.7148 13.5875 22.6744 13.5875 22.6744H17.2405V16.5367C17.2405 16.2083 17.2641 15.8801 17.3606 15.6452C17.6248 14.989 18.2258 14.3092 19.235 14.3092C20.5567 14.3092 21.0857 15.317 21.0857 16.7947V22.6744Z" fill="black"/>
</svg>
