<svg width="31" height="30" viewBox="0 0 31 30" fill="none" xmlns="http://www.w3.org/2000/svg">
<path fill-rule="evenodd" clip-rule="evenodd" d="M0.923462 15C0.923462 6.717 7.64046 0 15.9235 0C24.2065 0 30.9235 6.717 30.9235 15C30.9235 23.283 24.2065 30 15.9235 30C7.64046 30 0.923462 23.283 0.923462 15ZM22.7819 12.1411C22.7819 11.9921 22.7787 11.8438 22.772 11.6961C23.4442 11.2102 24.0286 10.6037 24.4893 9.91313C23.8725 10.1873 23.2087 10.372 22.5122 10.4554C23.2231 10.0289 23.7688 9.35466 24.0263 8.55106C23.3609 8.94542 22.6244 9.23198 21.84 9.3867C21.2117 8.71745 20.3173 8.29883 19.3269 8.29883C17.4256 8.29883 15.8836 9.84081 15.8836 11.7414C15.8836 12.0115 15.914 12.2743 15.9731 12.5265C13.1116 12.3825 10.5742 11.0125 8.87637 8.92917C8.58066 9.43797 8.41014 10.0289 8.41014 10.6597C8.41014 11.8543 9.01782 12.9087 9.94228 13.5256C9.3774 13.5082 8.84685 13.353 8.3829 13.095C8.38245 13.1095 8.38245 13.1234 8.38245 13.139C8.38245 14.8062 9.5692 16.1985 11.1446 16.5139C10.8553 16.5928 10.5509 16.6352 10.2366 16.6352C10.0153 16.6352 9.79945 16.6132 9.58957 16.5729C10.0281 17.9409 11.2989 18.9363 12.806 18.9643C11.6275 19.8878 10.143 20.438 8.52985 20.438C8.25221 20.438 7.97801 20.4222 7.70862 20.3904C9.23228 21.3671 11.0416 21.937 12.9859 21.937C19.3189 21.9368 22.7819 16.6906 22.7819 12.1411Z" fill="black"/>
</svg>
