<svg width="31" height="30" viewBox="0 0 31 30" fill="none" xmlns="http://www.w3.org/2000/svg">
<path d="M14.0563 17.8099L18.9356 14.9997L14.0563 12.1895L14.0563 17.8099Z" fill="black"/>
<path fill-rule="evenodd" clip-rule="evenodd" d="M0.923462 15C0.923462 6.717 7.64046 0 15.9235 0C24.2065 0 30.9235 6.717 30.9235 15C30.9235 23.283 24.2065 30 15.9235 30C7.64046 30 0.923462 23.283 0.923462 15ZM24.9121 19.5243C25.298 18.0574 25.298 15.0153 25.298 15.0153C25.298 15.0153 25.3136 11.9582 24.9121 10.4913C24.6958 9.68834 24.0627 9.05502 23.2598 8.83896C21.7929 8.4375 15.9253 8.4375 15.9253 8.4375C15.9253 8.4375 10.0577 8.4375 8.59079 8.82362C7.80321 9.03969 7.15456 9.68834 6.93849 10.4913C6.55237 11.9582 6.55237 15 6.55237 15C6.55237 15 6.55237 18.0574 6.93849 19.5087C7.15479 20.3117 7.78787 20.945 8.59079 21.161C10.073 21.5625 15.9253 21.5625 15.9253 21.5625C15.9253 21.5625 21.7929 21.5625 23.2598 21.1764C24.0627 20.9603 24.6958 20.3272 24.9121 19.5243Z" fill="black"/>
</svg>
