<svg width="24" height="24" viewBox="0 0 24 24" fill="none" xmlns="http://www.w3.org/2000/svg">
<g clip-path="url(#clip0_1490_11039)">
<path fill-rule="evenodd" clip-rule="evenodd" d="M3 0H21C22.6545 0 24 1.3455 24 3V21C24 22.6545 22.6545 24 21 24H12H11H3C1.3455 24 0 22.6545 0 21V3C0 1.3455 1.3455 0 3 0ZM7.75859 9.07344H4.30547V19.5125H7.75859V9.07344ZM13.2969 10.5078C14.2531 9.28594 15.1562 8.72812 16.6703 8.72812C18.2109 8.72812 21 9.47188 21 13.5891V19.5125H17.5203V13.8281C17.5203 12.6594 16.6969 11.4906 15.3156 11.4906C13.9344 11.4906 13.3234 12.6594 13.3234 13.8547V19.5125H9.84375V9.07344H13.2969V10.5078ZM4 5.83281C4 4.82344 4.90312 4 6.04531 4C7.1875 4 8.09062 4.82344 8.09062 5.83281C8.09062 6.84219 7.1875 7.66562 6.04531 7.66562C4.90312 7.66562 4 6.84219 4 5.83281Z" fill="black"/>
</g>
<defs>
<clipPath id="clip0_1490_11039">
<rect width="24" height="24" fill="white"/>
</clipPath>
</defs>
</svg>
