<?xml version="1.0" encoding="utf-8"?>
<!-- Generator: Adobe Illustrator 27.0.0, SVG Export Plug-In . SVG Version: 6.00 Build 0)  -->
<svg version="1.1" id="Layer_1" xmlns="http://www.w3.org/2000/svg" xmlns:xlink="http://www.w3.org/1999/xlink" x="0px" y="0px"
	 width="120px" height="54px" viewBox="0 0 120 54" style="enable-background:new 0 0 120 54;" xml:space="preserve">
<style type="text/css">
	.st0{clip-path:url(#SVGID_00000103973975385285235010000003481840663009164179_);}
	.st1{fill:none;}
</style>
<g>
	<g>
		<defs>
			<rect id="SVGID_1_" y="4.1" width="120" height="50"/>
		</defs>
		<clipPath id="SVGID_00000087412056648446500040000018101248308844130483_">
			<use xlink:href="#SVGID_1_"  style="overflow:visible;"/>
		</clipPath>
		<g style="clip-path:url(#SVGID_00000087412056648446500040000018101248308844130483_);">
			<path d="M27.8,4.5h-4.1v24.8l0,0h4.1V4.5z"/>
			<path d="M16.4,26.2c2.7-2.4,4-5.5,4-9.2c0-3.8-1.4-7.1-4.1-9.4c-2.3-2-5.8-3-10.2-3H0.8v24.8H6C10.5,29.3,14,28.3,16.4,26.2z
				 M5,8.4h1.1c3.5,0,5.9,0.7,7.5,2.1c1.8,1.6,2.8,3.7,2.8,6.4s-0.9,4.6-2.7,6.3c-1.5,1.5-4,2.2-7.6,2.2H5V8.4L5,8.4z"/>
			<path d="M76.5,16.1H65.3V20h6.8c-0.2,1.5-1,2.9-2.3,4c-1.4,1.2-3.3,1.8-5.1,1.8c-2.2,0-4.2-0.9-6.1-2.7c-1.6-1.6-2.5-3.8-2.5-6.1
				c0-2.4,0.9-4.7,2.7-6.4C60.4,8.9,62.6,8,64.9,8c3,0,5.4,1.4,7.4,4.1l3.1-2.7C72.7,5.8,69.2,4.1,65,4.1c-7.1,0-12.8,5.7-12.9,12.8
				V17c0,7,5.7,12.7,12.7,12.7c1.8,0,3.5-0.4,5.1-1.1s3-1.7,4.1-3c1-1.2,1.8-2.6,2.2-4.1c0.4-1.5,0.5-3.1,0.4-4.6L76.5,16.1
				L76.5,16.1z"/>
			<path d="M40.2,4.4L29.4,29.3h4.5l2.4-5.5c0.1-0.2,0.1-0.3,0.1-0.4c0.1,0.1,0.3,0.1,0.4,0.2c1.4,0.5,2.9,0.8,4.5,0.8
				c1.3,0,2.7-0.2,3.9-0.6c0.3-0.1,0.5-0.2,0.7-0.3c0,0.1,0.1,0.3,0.1,0.4l0,0l2.3,5.4h4.5L42.3,4.4H40.2L40.2,4.4z M44.5,20
				l-0.4,0.1c-1.9,0.5-3.8,0.5-5.7,0C38.2,20,38,20,37.8,20c0.1-0.2,0.2-0.4,0.3-0.5l3.1-7.6l3.1,7.6C44.3,19.6,44.4,19.8,44.5,20z"
				/>
			<path d="M116.3,7.9c-2.5-2.5-5.5-3.8-9.1-3.8s-6.6,1.3-9.1,3.7l0,0c-2.5,2.5-3.8,5.5-3.8,9.1c0,7.1,5.7,12.8,12.8,12.8
				c7.1,0,12.8-5.6,12.8-12.8C120,13.4,118.7,10.4,116.3,7.9L116.3,7.9z M113.4,23.2c-1.6,1.7-3.9,2.6-6.2,2.6c-4.9,0-8.8-4-8.8-8.9
				c0-2.4,0.9-4.6,2.6-6.3s3.8-2.6,6.2-2.6c2.4,0,4.5,0.9,6.2,2.6s2.6,3.8,2.6,6.3C116,19.3,115.1,21.5,113.4,23.2L113.4,23.2z"/>
			<path d="M83.2,17.7h8.7v-3.9h-8.7V8.4h9.4V4.5H79.2v24.8h13.5v-3.9h-9.4L83.2,17.7L83.2,17.7z"/>
			<path d="M6.3,43.2L6.3,43.2c0.2-0.2,0.2-0.5,0.2-0.7c-0.5,0-1.4,0.1-2.2,0.1c-0.6,0-1.4,0-2.1,0H2.1c0,0-0.1,0.3-0.1,0.5
				c0.3,0,0.7,0.1,0.9,0.2c0.2,0.1,0.3,0.2,0.3,0.4S3.1,44.3,3,44.8l-1.6,7.8c0,0.2-0.1,0.3-0.3,0.4c-0.3,0.1-0.7,0.2-0.9,0.2
				l-0.1,0.1C0.1,53.5,0,53.7,0,54c0.5,0,1.4-0.1,2.1-0.1s1.4,0,2.1,0.1h0.1c0.1-0.2,0.1-0.4,0.2-0.6c-0.3,0-0.7-0.1-0.9-0.2
				c-0.2,0-0.3-0.2-0.3-0.4s0-0.5,0.2-1l1.6-8c0-0.2,0.1-0.3,0.3-0.3C5.7,43.3,6.1,43.2,6.3,43.2L6.3,43.2z"/>
			<path d="M11.6,52.8c-0.1,0-0.2-0.1-0.2-0.2c0-0.1,0.1-0.4,0.2-0.7l1-2.8c0.2-0.7,0.5-1.4,0.5-2c0-0.7-0.4-1.1-1.2-1.1
				c-1.5,0-2.7,1.3-4.2,4.1H7.6l0.7-2.2c0.2-0.6,0.3-1,0.3-1.3S8.3,46,7.9,46C7,46.2,6,46.9,5.2,48v0.1c0,0.3,0,0.5,0.1,0.8
				c0.7-1,1.4-1.4,1.7-1.4c0.1,0,0.1,0.1,0.1,0.2c0,0.2-0.3,1.1-0.6,2.1c-0.4,1.4-0.8,2.7-1.1,3.9C5.6,53.9,5.9,54,6.2,54
				c0.1,0,0.2,0,0.3,0l0.1,0c0.2-0.5,0.4-1,0.6-1.4c1.3-2.8,3.2-5.5,4-5.5c0.2,0,0.3,0.2,0.3,0.3c0,0.3-0.2,0.9-0.5,1.6l-1,2.9
				c-0.3,0.8-0.4,1.2-0.4,1.5c0,0.4,0.3,0.7,0.9,0.7c0.9,0,1.9-0.8,2.7-1.7c0.1-0.3,0.2-0.8,0.3-1.1h-0.1
				C12.6,52.3,11.9,52.8,11.6,52.8L11.6,52.8z"/>
			<path d="M20.3,52.8c-0.1,0-0.2-0.1-0.2-0.2c0-0.2,0.1-0.8,0.3-1.6c0.2-0.9,0.5-2,0.8-3.1l1.5-6.1l-0.2-0.2
				c-0.8,0.1-2,0.3-2.6,0.4l0,0c-0.1,0.1-0.1,0.3-0.2,0.5c0.3,0,0.6,0.1,0.9,0.1c0.2,0,0.2,0.1,0.2,0.2c0,0.2-0.1,0.6-0.3,1.2
				l-0.6,2.6l0,0c-0.2-0.3-0.5-0.5-1.1-0.5c-1.5,0-3.2,1.3-4.1,2.9c-0.6,1-0.9,2.2-0.9,3.2c0,1.2,0.5,1.8,1.4,1.8
				c1.1,0,2.8-1.4,4.1-3.7h0.1c-0.5,1.6-0.7,2.6-0.7,3S19,54,19.4,54c0.7,0,1.8-0.7,2.5-1.6c0.1-0.4,0.3-0.9,0.3-1.2h-0.1
				C21.4,52.1,20.7,52.8,20.3,52.8L20.3,52.8z M19.7,47.8c-0.1,0.5-0.3,1-0.5,1.4c-1.3,2.7-2.9,4-3.6,4c-0.2,0-0.4-0.2-0.4-0.5
				c0-0.5,0.2-1.4,0.6-2.3c0.7-1.7,2.1-3.5,3.3-3.5C19.5,46.9,19.7,47.2,19.7,47.8L19.7,47.8z"/>
			<path d="M24.5,52.8c-0.1,0-0.2,0-0.2-0.2s0.1-0.3,0.2-0.6l1.1-3.5c0.2-0.7,0.4-1.4,0.4-1.7c0-0.4-0.3-0.7-0.7-0.7
				c-0.8,0-1.9,0.7-2.8,1.7v0.1c0,0.3,0,0.5,0.1,0.7c0.8-0.9,1.4-1.3,1.6-1.3c0.1,0,0.1,0,0.1,0.1c0,0.2-0.2,0.7-0.4,1.4l-1,3.2
				c-0.2,0.6-0.3,1-0.3,1.2c0,0.4,0.3,0.7,0.8,0.7c0.8,0,1.8-0.8,2.6-1.7c0.1-0.3,0.2-0.8,0.3-1.1h-0.1
				C25.5,52.2,24.8,52.8,24.5,52.8L24.5,52.8z"/>
			<path d="M26.1,42.4c-0.6,0-1.1,0.5-1.1,1.2c0,0.6,0.4,0.9,0.8,0.9c0.6,0,1.1-0.6,1.1-1.2S26.5,42.4,26.1,42.4L26.1,42.4z"/>
			<path d="M34.6,46c-0.1,0-0.3,0-0.5,0c-0.1,0-0.4,0-0.5,0h-0.1l-0.4,0.9l0,0c-0.3-0.4-0.7-0.6-1.3-0.6c-2.4,0-5.1,3.8-5.1,6.6
				c0,0.7,0.6,1.2,1.2,1.2c1.2,0,3-1.9,4.3-4h0.2c-0.6,1.8-1,2.9-1,3.3c0,0.4,0.3,0.7,0.7,0.7c0.6,0,1.5-0.6,2.2-1.4
				c0.1-0.4,0.3-0.9,0.3-1.2h-0.1c-0.6,0.8-1.3,1.4-1.6,1.4c-0.1,0-0.1-0.1-0.1-0.2c0-0.2,0.1-0.6,0.2-1C33.4,50.2,34,48.1,34.6,46
				L34.6,46z M31.7,49.6C30.3,51.9,29,53,28.6,53c-0.2,0-0.4-0.1-0.3-0.7c0.1-2.1,1.7-5.2,3-5.2c0.6,0,1.1,0.4,1.3,1
				C32.3,48.5,32,49.1,31.7,49.6z"/>
		</g>
	</g>
</g>
<rect x="0.1" class="st1" width="120" height="54.2"/>
</svg>
