<svg width="24" height="24" viewBox="0 0 24 24" fill="none" xmlns="http://www.w3.org/2000/svg">
<g clip-path="url(#clip0_1490_11032)">
<path d="M17.3766 0H6.62295C2.97106 0 0 2.9712 0 6.62309V17.3768C0 21.0288 2.97106 23.9999 6.62295 23.9999H17.3766C21.0288 23.9999 23.9999 21.0287 23.9999 17.3768V6.62309C24 2.9712 21.0288 0 17.3766 0ZM21.8706 17.3768C21.8706 19.8547 19.8547 21.8705 17.3768 21.8705H6.62295C4.1452 21.8706 2.12938 19.8547 2.12938 17.3768V6.62309C2.12938 4.14534 4.1452 2.12938 6.62295 2.12938H17.3766C19.8545 2.12938 21.8705 4.14534 21.8705 6.62309V17.3768H21.8706Z" fill="black"/>
<path d="M12.0006 5.81641C8.59057 5.81641 5.81641 8.59057 5.81641 12.0006C5.81641 15.4104 8.59057 18.1844 12.0006 18.1844C15.4106 18.1844 18.1847 15.4104 18.1847 12.0006C18.1847 8.59057 15.4106 5.81641 12.0006 5.81641ZM12.0006 16.0549C9.76485 16.0549 7.94579 14.2361 7.94579 12.0004C7.94579 9.76457 9.76471 7.94565 12.0006 7.94565C14.2364 7.94565 16.0553 9.76457 16.0553 12.0004C16.0553 14.2361 14.2363 16.0549 12.0006 16.0549Z" fill="black"/>
<path d="M18.4444 4.01074C18.0341 4.01074 17.6311 4.17683 17.3413 4.46785C17.0502 4.75745 16.8828 5.16061 16.8828 5.57229C16.8828 5.98269 17.0503 6.38571 17.3413 6.67673C17.6309 6.96633 18.0341 7.13384 18.4444 7.13384C18.856 7.13384 19.2578 6.96633 19.5488 6.67673C19.8398 6.38571 20.0059 5.98255 20.0059 5.57229C20.0059 5.16061 19.8398 4.75745 19.5488 4.46785C19.2592 4.17683 18.856 4.01074 18.4444 4.01074Z" fill="black"/>
</g>
<defs>
<clipPath id="clip0_1490_11032">
<rect width="24" height="24" fill="white"/>
</clipPath>
</defs>
</svg>
