<svg width="12" height="15" viewBox="0 0 12 15" fill="none" xmlns="http://www.w3.org/2000/svg">
<path fill-rule="evenodd" clip-rule="evenodd" d="M0.5 5.35498C0.541147 2.35793 3.00292 -0.038943 6 -2.08825e-05C8.99708 -0.038943 11.4589 2.35793 11.5 5.35498C11.4987 6.51877 11.1119 7.64934 10.4 8.56998L6 15L1.6 8.56998C0.888085 7.64934 0.501264 6.51877 0.5 5.35498ZM10.5 5.35498C10.4535 2.91256 8.44263 0.966524 6 0.999979C3.55737 0.966524 1.54654 2.91256 1.5 5.35498C1.49927 6.31606 1.82547 7.24881 2.425 7.99998L6 13.23L9.605 7.95998C10.1853 7.21563 10.5003 6.29878 10.5 5.35498ZM6 3.99998C6.82843 3.99998 7.5 4.67155 7.5 5.49998C7.5 6.32841 6.82843 6.99998 6 6.99998C5.17157 6.99998 4.5 6.32841 4.5 5.49998C4.5 4.67155 5.17157 3.99998 6 3.99998ZM3.5 5.49998C3.5 4.11927 4.61929 2.99998 6 2.99998C7.38071 2.99998 8.5 4.11927 8.5 5.49998C8.5 6.88069 7.38071 7.99998 6 7.99998C4.61929 7.99998 3.5 6.88069 3.5 5.49998Z" fill="black"/>
</svg>
