<svg xmlns="http://www.w3.org/2000/svg" fill="none" viewBox="0 0 272 113">
    <path d="M85.83 35.86c.17-.35.46-.93.58-1.21l7.06-17.12 6.94 17.3c.12.29.35.77.52 1.16l-.87.17a24.567 24.567 0 0 1-12.96 0c-.41-.14-.84-.24-1.27-.29M14.04 9.78c7.87 0 13.42 1.62 16.89 4.69 4.16 3.64 6.25 8.45 6.25 14.46 0 6.01-2.02 10.47-6.02 14.17-3.47 3.3-9.14 5.03-17.12 5.03h-2.55V9.78h2.55Zm242.95 4.92c3.93 3.82 5.84 8.62 5.84 14.23.08 5.35-2.03 10.5-5.85 14.25-3.69 3.8-8.78 5.91-14.07 5.82-11.05 0-19.84-9.08-19.84-20.07a19.71 19.71 0 0 1 5.86-14.29c3.82-3.88 8.56-5.78 14-5.78 5.44 0 10.12 1.97 14.06 5.84Zm-93.19 3.36 7-6.02C164.78 4 156.74.01 147.28.01c-16.02-.08-29.07 12.84-29.15 28.86v.18c0 15.81 12.96 28.81 28.75 28.81 3.98 0 7.9-.88 11.51-2.55a26.46 26.46 0 0 0 9.26-6.83c2.35-2.65 4.03-5.83 4.92-9.26.87-3.42 1.19-6.95.94-10.47l-.12-1.68h-25.22v8.85h15.5c-.39 3.47-2.2 6.48-5.32 8.97A17.885 17.885 0 0 1 146.72 49c-5.03 0-9.54-2.08-13.71-6.19a18.899 18.899 0 0 1-5.67-13.71 19.79 19.79 0 0 1 6.02-14.52c3.59-3.75 8.59-5.82 13.78-5.73 6.83 0 12.21 3.12 16.66 9.2m-59.29 26.67 5.14 12.26h10.18L95.92.75h-4.63L66.78 56.98H76.9l5.38-12.49c.12-.35.18-.58.23-.81.23.12.58.23.98.4 3.24 1.2 6.67 1.81 10.12 1.79 3.02 0 6.03-.47 8.91-1.39.58-.17 1.15-.4 1.68-.69.06.23.23.75.29.93M13.73 56.98c10.3 0 18.22-2.31 23.54-7.11 6.07-5.44 9.14-12.38 9.14-20.88 0-8.5-3.12-15.97-9.37-21.29C31.78 3.19 23.97.93 13.84.93H1.87v56.05h11.86Zm40.2 0h9.2V.92h-9.2V56.98ZM188.7 30.83h19.61v-8.79H188.7V9.78h21.34V.91H179.5v56.07h30.6v-8.85h-21.4v-17.3ZM222.36 8.5c-5.73 5.61-8.56 12.49-8.56 20.48 0 16.14 13.02 28.86 29.1 28.86 16.08 0 29.1-12.67 29.1-28.86 0-7.92-2.89-14.69-8.48-20.42C257.85 2.83 250.97 0 242.93 0s-14.87 2.83-20.53 8.48M18.24 107.23l-5.55-11.32c-.8-1.71-1.98-4.14-2.89-6.27h-.19c-.27 1.75-.57 3.61-.91 5.28l-2.24 12.39c-.23 1.22-.38 2.05-.38 2.51 0 .38.11.57.49.68.8.27 1.94.53 2.74.72-.08.61-.19 1.1-.38 1.44l-.19.11c-.95-.08-2.62-.15-4.1-.15-1.48 0-3.53.08-4.64.15.04-.53.15-1.1.34-1.52l.23-.11c.61-.15 1.48-.42 2.01-.65.57-.19.84-.53 1.03-1.44l3.15-16.3c.42-2.2.61-3.15.61-3.46 0-.38-.11-.57-.46-.65-.61-.11-1.37-.19-2.09-.3.08-.65.19-1.06.42-1.48l.19-.11c1.06.08 2.89.08 3.95.08 1.18 0 2.36 0 3.42-.04.57 1.6 1.48 3.61 2.36 5.51l5.36 11.09c.68 1.41 1.37 2.81 1.94 4.07h.23l2.36-12.42c.68-3.53.87-4.86.87-5.36 0-.42-.19-.65-.57-.76-.87-.23-1.94-.49-2.77-.65.04-.57.19-1.14.38-1.48l.19-.11c.95.08 2.74.15 4.22.15 1.48 0 3.5-.08 4.64-.15-.08.53-.15 1.1-.38 1.52l-.23.15c-.61.15-1.37.34-1.94.57-.46.15-.76.57-.91 1.33-.61 2.62-1.22 5.47-1.9 8.78l-1.71 8.21c-.38 1.75-.76 3.65-1.1 5.17l-.38.27c-.65.15-1.67.23-2.55.23-.72-1.71-1.63-3.57-2.66-5.66l-.01-.02ZM29.11 107.35c0-1.71.46-3.95 1.56-6.16 1.6-3.27 4.83-6 8.66-6 3.23 0 5.32 1.98 5.32 5.47 0 3.27-1.41 7.1-3.99 9.76-1.48 1.6-3.8 2.7-5.85 2.7-3.69 0-5.7-2.13-5.7-5.78v.01Zm9.38 1.33c1.22-2.05 2.39-5.58 2.39-8.74 0-2.32-.68-3.15-1.86-3.15-1.79 0-3.57 2.01-4.79 5.02-.76 1.82-1.29 4.18-1.29 6.08 0 2.36.49 3.69 2.05 3.69 1.14 0 2.36-1.03 3.5-2.89v-.01ZM47.2 112.25c.38-1.56.8-3.27 1.18-4.9.38-1.6.84-3.76 1.22-5.74.27-1.22.57-2.66.57-3.15 0-.27-.15-.46-.38-.46-.68 0-1.79 1.18-3.08 3.04-.19-.49-.3-1.14-.27-1.79l.11-.27c1.33-1.98 3.31-3.8 5.02-3.8 1.1 0 1.75.68 1.75 1.67 0 .87-.53 2.93-1.18 5.21L51 106.28h.42c3.84-8.74 5.93-11.09 8.4-11.09 1.14 0 2.05.72 2.05 2.05 0 1.33-.76 2.66-1.75 3.8h-.57c-.38-1.98-.72-2.77-1.37-2.77-1.06 0-2.77 2.58-6.27 10.14a91.68 91.68 0 0 0-1.98 4.37l-.27.15c-.19.04-.42.04-.65.04-.72 0-1.44-.27-1.82-.72h.01ZM62.02 110.99c0-.91.42-2.36.87-4.03l1.52-5.7c.42-1.63.87-3.27.87-3.69 0-.19-.08-.3-.3-.3-.8 0-1.98.04-3 .11.04-.46.15-.95.34-1.37l.11-.11 2.81-.42c.42-.08.76-.23.95-.65.53-.99 1.14-2.36 1.67-3.5l.15-.11c.72-.08 1.94-.08 2.74-.08l-1.33 4.45c.42-.08 1.1-.15 1.79-.15h3.42c-.15.61-.46 1.37-.72 1.75l-.19.11-4.64-.08-2.55 9.8c-.34 1.41-.53 2.28-.53 2.77 0 .34.19.49.53.49.84 0 3.12-1.94 4.86-4.22l.23.08c.04.53-.04 1.44-.19 2.17-1.86 2.58-4.64 4.79-6.99 4.79-1.37 0-2.43-.8-2.43-2.13l.01.02ZM83.14 111.49c0-.57.34-1.6.95-3.38l2.2-6.46c.57-1.56 1.03-2.96 1.03-3.65 0-.42-.15-.76-.61-.76-1.82 0-6.31 6.12-9.16 12.42-.42.95-.87 2.09-1.25 3.12l-.27.15c-.23.04-.49.04-.68.04-.8 0-1.44-.27-1.82-.76.42-1.52.91-3.31 1.48-5.47 1.29-5.05 2.77-10.98 4.14-16.41.34-1.37.53-2.28.53-2.62 0-.23-.08-.38-.42-.46-.72-.11-1.52-.23-2.13-.27.08-.42.23-.87.42-1.18l.11-.15c1.33-.23 4.07-.65 5.81-.84l.53.34-2.17 8.78c-.84 3.42-2.13 6.8-3.5 10.56h.3c3.61-6.38 6.35-9.31 9.57-9.31 1.67 0 2.66.91 2.66 2.47 0 1.22-.61 3-1.1 4.45l-2.17 6.23c-.19.57-.42 1.22-.42 1.52 0 .19.11.34.34.34.65 0 2.55-1.56 4.03-3.42l.27.08c-.15.76-.34 1.71-.61 2.51-1.63 1.9-4.18 3.76-6.15 3.76-1.25 0-1.94-.8-1.94-1.63h.03ZM101.01 111.34l.19-.11c.53-.15 1.14-.34 1.6-.46.99-.3 1.75-.72 2.47-2.05 3.15-5.62 5.7-10.11 8.7-15.27 1.33-2.24 2.85-4.75 3.91-6.65l.34-.19c.95-.23 2.2-.38 3.53-.42.15 1.79.3 3.46.49 5.17.57 5.74 1.33 12.92 1.86 18.12.08.91.38 1.18.95 1.33.61.15 1.37.3 2.05.42-.08.65-.19 1.14-.38 1.48l-.19.11c-1.82-.11-3.34-.19-4.79-.19-1.22 0-3.57.11-4.83.19 0-.49.08-.95.3-1.48l.19-.11c.65-.11 1.41-.3 2.01-.46.57-.15.87-.42.87-.99 0-.95-.3-3.8-.61-6.69-.8.11-1.98.15-3 .15h-5.74l-2.66 4.94c-.42.8-.72 1.33-.72 1.75 0 .3.15.53.57.65.84.27 1.9.53 2.58.68-.08.57-.19 1.03-.42 1.37l-.27.15c-1.48-.08-3.61-.15-4.83-.15-1.71 0-3.5.11-4.52.19 0-.57.11-1.03.3-1.48h.05Zm13.6-10.14h4.9c-.23-2.28-.46-4.56-.65-6.65-.15-1.37-.27-2.66-.34-4.03h-.34c-.76 1.29-1.63 2.74-2.39 4.07-1.33 2.32-2.55 4.52-3.72 6.76.61-.08 1.63-.15 2.55-.15h-.01ZM148.65 111.49c0-.57.38-1.6.95-3.38.61-1.86 1.48-4.48 2.05-6.16.57-1.63 1.22-3.23 1.22-3.95 0-.34-.19-.76-.61-.76-2.09 0-7.18 7.45-9.65 13.3-.3.68-.65 1.48-.91 2.24l-.3.15c-.19.04-.46.04-.65.04-.76 0-1.44-.27-1.82-.76l1.52-4.98c.53-1.67 1.03-3.34 1.56-5.05.46-1.56.95-3.38.95-4.22 0-.38-.15-.72-.61-.72-1.94 0-6.8 6.76-9.54 13.3-.34.8-.65 1.56-.91 2.24l-.27.15c-.23.04-.49.04-.68.04-.8 0-1.48-.27-1.86-.76.95-3.34 1.94-6.88 2.89-10.3.42-1.56.87-2.96.87-3.42 0-.3-.04-.46-.27-.46-.57 0-2.17 1.03-3.84 3.19-.11-.49-.19-1.1-.15-1.71l.11-.27c1.71-2.36 4.03-4.07 6-4.07.95 0 1.56.49 1.56 1.25s-.3 1.71-.72 3c-.42 1.37-.99 3.04-1.52 4.86h.3c3.5-6.23 6.19-9.12 9.57-9.12 1.48 0 2.2.91 2.2 2.05 0 1.44-.8 3.46-2.28 7.33h.3c3.31-6.23 6.19-9.38 9.65-9.38 1.63 0 2.62.87 2.62 2.55 0 .91-.42 2.39-1.14 4.41-.68 1.94-1.48 4.22-2.13 6.19-.19.57-.42 1.22-.42 1.52 0 .19.11.34.34.34.61 0 2.17-1.29 3.99-3.46l.23.08c-.11.76-.34 1.71-.61 2.47-1.79 2.09-4.07 3.84-6.08 3.84-1.25 0-1.94-.8-1.94-1.63l.03.02ZM158.57 107.76c0-6.19 5.85-12.58 10.98-12.58 2.17 0 3.53 1.14 3.53 2.81 0 3.38-5.05 5.78-10.49 7.07-.15.76-.23 1.52-.23 2.28 0 2.36.84 3.53 2.24 3.53 1.56 0 3.5-1.33 5.28-3.46l.27.08c-.11.76-.38 1.71-.65 2.43-1.44 1.67-3.84 3.19-6.23 3.19-3.08 0-4.71-1.79-4.71-5.36l.01.01Zm11.06-10.03c0-.68-.27-1.06-.91-1.06-1.86 0-4.71 3.04-5.81 7.07 5.09-1.86 6.72-4.03 6.72-6v-.01ZM174.69 112.25c.38-1.56.8-3.27 1.18-4.9.38-1.6.83-3.76 1.22-5.74.27-1.22.57-2.66.57-3.15 0-.27-.15-.46-.38-.46-.68 0-1.79 1.18-3.08 3.04-.19-.49-.3-1.14-.27-1.79l.11-.27c1.33-1.98 3.31-3.8 5.02-3.8 1.1 0 1.75.68 1.75 1.67 0 .87-.53 2.93-1.18 5.21l-1.14 4.22h.42c3.84-8.74 5.93-11.09 8.4-11.09 1.14 0 2.05.72 2.05 2.05 0 1.33-.76 2.66-1.75 3.8h-.57c-.38-1.98-.72-2.77-1.37-2.77-1.06 0-2.77 2.58-6.27 10.14a91.68 91.68 0 0 0-1.98 4.37l-.27.15c-.19.04-.42.04-.65.04-.72 0-1.44-.27-1.82-.72h.01ZM189.89 111.56c0-.57.3-1.56.68-2.81l2.17-7.18c.49-1.67.87-2.81.87-3.15 0-.19-.04-.27-.23-.27-.53 0-1.98.91-3.72 2.89a5.87 5.87 0 0 1-.15-1.67l.11-.27c2.01-2.28 4.48-3.91 6.31-3.91 1.03 0 1.63.61 1.63 1.56 0 .68-.46 2.17-.95 3.8l-2.43 7.86c-.23.68-.38 1.18-.38 1.41 0 .23.08.34.34.34.57 0 2.17-1.29 3.91-3.34l.23.08c-.11.68-.34 1.75-.61 2.47-1.75 2.05-4.06 3.76-5.93 3.76-1.14 0-1.86-.68-1.86-1.56l.01-.01Zm5.21-22.3c0-1.41 1.14-2.62 2.55-2.62.95 0 1.79.61 1.79 1.9 0 1.37-1.06 2.66-2.47 2.66-.95 0-1.86-.61-1.86-1.94h-.01ZM200.03 107.99c0-5.58 4.86-12.8 10.6-12.8 2.36 0 3.57 1.03 3.57 2.47 0 1.1-.91 2.32-2.43 3.04l-.34-.04c-.19-2.81-.87-3.95-1.86-3.95-2.55 0-5.74 5.62-5.74 10.71 0 2.28.68 3.42 2.28 3.42 1.25 0 3.19-1.33 4.98-3.34l.27.08c-.08.72-.38 1.67-.65 2.43-1.63 1.75-3.88 3.12-6.23 3.12-2.62 0-4.45-1.75-4.45-5.13v-.01ZM214.24 110.35c0-6.31 6.23-14.86 11.63-14.86 1.48 0 2.39.57 3.04 1.41h.11l.84-1.98.15-.11c.38-.08.91-.08 1.18-.08.38 0 .87.04 1.14.11-1.33 4.75-2.62 9.35-3.61 12.69-.27.91-.53 1.9-.53 2.28 0 .27.11.42.3.42.57 0 2.2-1.44 3.57-3.19l.23.08c-.11.8-.38 1.9-.68 2.74-1.67 1.86-3.68 3.27-5.05 3.27-.99 0-1.67-.57-1.67-1.52 0-.95.8-3.38 2.24-7.52h-.38c-2.96 4.71-7.03 9.04-9.76 9.04-1.44 0-2.74-1.1-2.74-2.77l-.01-.01Zm11.63-7.45c.65-1.03 1.41-2.51 1.75-3.53-.46-1.29-1.6-2.17-2.89-2.17-2.92 0-6.57 7.14-6.76 11.78-.08 1.22.27 1.52.76 1.52.87 0 3.91-2.47 7.14-7.6Z" fill="currentColor"/>
</svg>
