<svg width="32" height="32" viewBox="0 0 32 32" fill="none" xmlns="http://www.w3.org/2000/svg">
<path fill-rule="evenodd" clip-rule="evenodd" d="M32 30.394L22.1343 20.5282C26.4936 15.2512 25.8052 7.22097 20.5282 2.8617C15.2512 -1.49757 7.22097 -0.809266 2.8617 4.46775C-1.49757 9.74476 -0.809266 17.775 4.46775 22.1343C9.05646 26.0347 15.9395 26.0347 20.5282 22.1343L30.394 32L32 30.394ZM2.17383 12.4979C2.17383 6.76206 6.76254 2.17335 12.4984 2.17335C18.2343 2.17335 22.823 6.76206 22.823 12.4979C22.823 18.2338 18.2343 22.8225 12.4984 22.8225C6.76254 22.8225 2.17383 18.2338 2.17383 12.4979Z" fill="black"/>
</svg>
